<?xml version="1.0" standalone="no"?>
<!DOCTYPE svg PUBLIC "-//W3C//DTD SVG 20010904//EN"
 "http://www.w3.org/TR/2001/REC-SVG-20010904/DTD/svg10.dtd">
<svg version="1.0" xmlns="http://www.w3.org/2000/svg"
 width="761.000000pt" height="761.000000pt" viewBox="0 0 761.000000 761.000000"
 preserveAspectRatio="xMidYMid meet">
<metadata>
Created by potrace 1.14, written by Peter Selinger 2001-2017
</metadata>
<g transform="translate(0.000000,761.000000) scale(0.100000,-0.100000)"
fill="#000000" stroke="none">
<path d="M6748 7545 c-2 -1 -30 -5 -63 -8 -33 -3 -82 -11 -110 -17 -27 -5 -72
-12 -100 -13 -27 -2 -60 -9 -73 -16 -19 -10 -30 -10 -60 2 -34 13 -44 13 -112
-5 -180 -47 -178 -47 -390 -43 -113 2 -223 5 -245 6 -52 3 -183 -9 -198 -18
-7 -4 -266 -9 -577 -11 -694 -4 -575 -4 -1030 -2 -212 2 -425 -1 -475 -6 -49
-5 -121 -7 -160 -6 -38 1 -380 4 -760 6 -564 3 -698 6 -734 18 -33 11 -56 12
-93 5 -34 -7 -61 -6 -88 2 -26 8 -82 9 -172 5 -127 -6 -137 -5 -218 21 -75 24
-103 28 -243 31 -156 3 -158 2 -167 -20 -10 -28 -4 -85 17 -146 11 -33 15 -94
16 -230 1 -164 -2 -192 -21 -250 -30 -93 -32 -119 -8 -171 20 -42 22 -61 20
-265 -1 -120 -4 -228 -7 -239 -5 -20 14 -160 29 -220 4 -16 8 -741 10 -1610 2
-1451 6 -1838 19 -1920 3 -16 8 -46 11 -65 3 -19 16 -57 29 -85 14 -29 24 -68
24 -95 -1 -25 6 -66 15 -91 9 -25 15 -74 14 -110 -1 -56 3 -72 35 -129 31 -57
47 -103 60 -185 13 -78 77 -220 153 -340 17 -27 46 -79 65 -115 19 -37 61 -92
96 -127 35 -35 63 -67 63 -72 0 -26 166 -165 228 -191 18 -7 52 -35 75 -63 26
-31 64 -60 102 -79 33 -17 94 -54 136 -84 41 -29 109 -68 151 -87 41 -19 78
-40 82 -46 4 -6 28 -17 54 -25 26 -7 74 -30 106 -50 33 -20 71 -36 85 -37 74
-2 130 -20 163 -52 17 -16 65 -36 103 -42 17 -3 45 -8 64 -11 19 -3 66 -22
105 -41 118 -60 146 -67 286 -78 41 -3 86 -9 99 -12 14 -3 59 -7 100 -8 42 -1
103 -6 136 -12 33 -6 202 -11 375 -12 269 -2 320 0 347 14 17 8 63 17 102 20
39 2 76 7 83 11 6 4 62 9 125 10 88 2 132 8 200 29 48 15 94 29 103 31 179 45
332 94 358 116 20 16 47 27 82 31 57 7 147 44 197 83 18 14 66 39 106 55 140
58 296 155 472 295 22 17 92 69 155 114 109 78 140 106 254 229 184 198 224
260 356 556 96 214 121 284 121 350 1 30 5 57 9 60 13 8 39 105 38 140 0 30 6
66 19 120 7 26 8 623 1 845 -2 80 5 146 24 232 20 92 14 1324 -7 1358 -16 26
-22 425 -12 885 1 44 -2 130 -7 190 -4 61 -10 187 -12 280 -8 303 -12 407 -19
556 -9 191 -13 669 -5 739 7 64 -5 110 -28 111 -10 1 -31 2 -49 4 -18 1 -33 1
-35 0z m-38 -215 c16 -16 20 -33 20 -87 0 -458 8 -1354 13 -1373 3 -14 9 -56
12 -95 3 -38 9 -97 13 -130 4 -33 6 -78 5 -100 -8 -106 -8 -584 -1 -634 5 -31
11 -200 14 -376 2 -176 6 -417 7 -535 3 -144 -1 -243 -9 -300 -8 -47 -16 -150
-19 -230 -2 -80 -8 -199 -11 -265 -4 -66 -6 -167 -4 -225 8 -259 3 -558 -9
-620 -6 -36 -14 -90 -15 -121 -2 -31 -11 -70 -20 -87 -10 -19 -16 -56 -16 -94
0 -54 -4 -66 -25 -86 -24 -23 -36 -56 -49 -133 -4 -21 -18 -53 -31 -73 -14
-20 -25 -42 -25 -48 0 -25 -64 -134 -105 -177 -60 -63 -77 -87 -114 -156 -38
-71 -58 -95 -131 -155 -92 -75 -120 -103 -141 -137 -11 -18 -63 -64 -114 -103
-116 -86 -361 -245 -418 -270 -54 -24 -81 -50 -102 -98 -18 -41 -41 -46 -65
-17 -14 16 -32 10 -84 -27 -39 -28 -154 -68 -195 -68 -11 0 -31 -11 -43 -25
-22 -25 -37 -29 -273 -75 -60 -12 -142 -34 -180 -50 -64 -25 -116 -35 -230
-45 -55 -4 -172 -15 -220 -20 -158 -16 -290 -23 -517 -26 -161 -3 -190 -1
-205 13 -14 13 -43 17 -128 19 -60 1 -128 7 -150 12 -22 5 -49 11 -60 13 -11
3 -54 8 -95 13 -56 6 -90 16 -132 40 -46 26 -75 34 -140 41 -57 5 -107 18
-158 40 -104 44 -204 80 -224 80 -8 0 -60 23 -113 52 -54 28 -154 80 -223 115
-91 46 -156 88 -238 156 -63 50 -135 106 -161 122 -66 42 -231 211 -265 270
-16 28 -71 111 -121 185 -114 167 -181 289 -196 358 -6 29 -22 79 -35 111 -13
32 -25 71 -28 86 -17 91 -27 211 -31 355 -1 58 -9 130 -18 162 -13 48 -15 170
-16 885 0 750 6 1065 25 1223 8 68 8 131 -1 235 -4 44 -8 190 -10 325 -1 135
-5 259 -10 275 -4 17 -8 37 -9 45 -14 101 -17 150 -21 300 -2 96 -6 186 -9
200 -3 14 -11 50 -17 80 -8 37 -12 243 -12 644 0 667 -7 616 82 616 47 0 191
-29 271 -54 25 -8 108 -17 185 -21 77 -3 165 -8 195 -11 30 -3 300 -7 600 -8
431 -2 552 -6 577 -17 28 -11 42 -11 105 5 108 26 168 30 208 14 43 -18 261
-24 317 -9 28 8 56 8 94 1 32 -6 186 -10 374 -9 377 2 362 2 493 -4 77 -4 109
-2 130 9 35 18 62 18 90 -2 12 -8 26 -13 31 -9 17 10 165 26 231 25 357 -9
849 4 918 24 39 11 80 13 151 9 61 -3 111 -1 132 6 26 8 44 8 80 -3 54 -17 94
-14 136 8 19 9 56 16 88 16 31 0 66 5 78 12 12 7 74 13 141 15 66 2 122 5 124
8 11 11 33 4 52 -15z"/>
<path d="M1479 6951 l-21 -17 40 -124 c43 -132 75 -239 112 -380 30 -110 38
-119 103 -116 l52 2 32 82 c18 45 56 160 84 255 28 94 59 192 70 216 23 53 24
65 4 81 -21 18 -100 15 -128 -3 -22 -14 -33 -50 -62 -197 -2 -8 -9 -44 -16
-80 -12 -62 -32 -101 -45 -88 -3 4 -10 26 -16 50 -5 24 -11 50 -13 58 -2 8
-13 60 -25 115 -24 114 -41 139 -108 153 -35 8 -46 7 -63 -7z"/>
<path d="M4165 6961 c-20 -6 -20 -14 -20 -211 1 -174 -1 -213 -17 -255 -30
-84 -65 -99 -128 -55 l-26 18 2 234 c1 128 -1 241 -3 251 -4 14 -16 17 -73 17
-62 0 -68 -2 -74 -22 -10 -38 -7 -470 4 -508 11 -39 59 -89 102 -108 35 -14
206 -9 238 8 14 7 38 24 53 39 57 52 59 63 61 334 0 148 -3 251 -8 255 -14 8
-87 10 -111 3z"/>
<path d="M2448 6949 c-14 -6 -29 -17 -32 -25 -3 -8 -6 -122 -6 -253 -1 -211
-3 -241 -18 -254 -32 -27 -59 -26 -86 2 l-26 27 -1 239 c0 149 -5 245 -11 253
-6 7 -33 12 -63 12 -30 0 -57 -5 -62 -12 -11 -13 -16 -454 -7 -516 7 -45 65
-95 127 -108 74 -15 206 2 253 33 47 31 50 50 49 329 -1 143 -5 266 -9 272 -9
14 -70 14 -108 1z"/>
<path d="M2794 6953 c-13 -2 -24 -13 -26 -26 -2 -12 -3 -149 -3 -304 1 -206 4
-285 13 -296 10 -12 44 -14 188 -13 187 1 196 3 186 51 -6 33 -51 45 -143 39
-45 -2 -77 0 -86 7 -11 10 -13 61 -12 271 1 142 0 260 -2 263 -7 7 -92 13
-115 8z"/>
<path d="M3234 6935 c-10 -40 0 -50 63 -68 33 -9 66 -23 73 -32 9 -11 13 -75
13 -258 0 -145 4 -247 10 -254 5 -7 29 -13 52 -13 55 0 54 -7 52 267 -1 117 1
226 6 243 9 35 50 60 101 60 38 0 53 22 41 60 -6 19 -15 20 -205 20 l-200 0
-6 -25z"/>
<path d="M4449 6918 c-6 -173 -5 -576 2 -589 6 -12 22 -16 68 -15 32 1 63 5
68 9 4 5 9 57 9 115 2 138 1 130 25 143 17 9 25 7 45 -12 13 -12 24 -28 24
-34 0 -25 89 -191 109 -203 12 -7 46 -15 76 -18 78 -6 80 11 15 141 -28 57
-57 106 -65 109 -19 7 -8 44 26 84 31 35 61 87 54 93 -2 3 -5 27 -6 54 -2 56
-25 102 -70 140 -30 25 -33 25 -205 25 l-174 0 -1 -42z m242 -54 c37 -19 63
-74 54 -116 -11 -49 -86 -82 -139 -62 -13 5 -16 23 -16 90 0 78 2 85 23 94 32
13 44 12 78 -6z"/>
<path d="M5725 6906 c-55 -55 -71 -94 -61 -146 2 -14 5 -28 5 -32 1 -3 20 -25
43 -47 42 -39 133 -81 177 -81 54 0 91 -49 85 -114 -4 -45 -18 -64 -59 -82
-25 -10 -34 -10 -57 4 -16 9 -31 24 -34 34 -8 27 -54 58 -78 53 -11 -3 -33 -7
-48 -9 -59 -10 -61 -26 -17 -103 19 -32 42 -59 58 -65 38 -15 224 -17 265 -3
42 15 63 34 86 83 24 49 21 207 -5 226 -19 13 -105 46 -188 71 -66 20 -97 42
-99 71 -3 35 23 84 53 99 37 20 70 7 97 -38 17 -29 28 -37 64 -42 24 -3 54 -4
67 -2 24 4 43 33 33 51 -3 5 -6 18 -7 30 -1 11 -3 24 -4 28 0 4 -21 21 -45 38
-43 29 -48 30 -161 30 l-117 0 -53 -54z"/>
<path d="M5120 6935 c-23 -29 -31 -540 -9 -602 8 -21 12 -21 200 -23 106 0
196 -3 200 -6 23 -14 30 62 6 77 -5 4 -58 5 -118 3 -101 -4 -109 -3 -129 18
-18 20 -22 33 -22 73 0 87 21 99 188 104 29 1 38 28 20 56 -13 20 -25 23 -100
26 -47 2 -90 9 -97 16 -18 18 -13 152 7 174 9 10 20 16 25 13 10 -6 154 -7
183 -1 24 5 58 46 54 66 -3 13 -30 16 -201 16 -124 0 -201 -3 -207 -10z"/>
<path d="M6065 6208 c-80 -24 -161 -30 -435 -34 -124 -2 -261 -5 -306 -7 -45
-2 -107 -1 -138 3 -42 5 -72 2 -109 -11 -35 -12 -75 -17 -119 -15 -52 2 -68 0
-68 -10 0 -10 -15 -14 -52 -15 -68 -1 -116 -7 -135 -17 -9 -6 -32 -3 -58 7
-40 14 -48 14 -98 -2 -47 -15 -62 -16 -101 -5 -36 9 -50 9 -69 -1 -28 -15
-111 -18 -187 -6 -65 10 -138 11 -196 4 -23 -4 -54 -1 -70 5 -20 9 -39 9 -71
1 -69 -18 -349 -12 -397 8 -21 9 -43 14 -50 10 -21 -14 -139 -21 -157 -10 -13
8 -28 7 -56 -2 -35 -12 -45 -11 -83 7 l-44 20 -45 -20 c-37 -16 -68 -21 -151
-21 -122 0 -232 8 -276 21 -22 7 -40 6 -63 -4 -27 -12 -37 -12 -59 0 -21 10
-97 13 -332 14 -234 0 -315 4 -350 15 -31 10 -56 11 -84 5 -22 -5 -52 -6 -66
-3 -49 13 -234 6 -245 -8 -11 -16 -12 -732 -1 -807 4 -25 9 -65 13 -90 4 -25
7 -686 9 -1470 2 -1260 5 -1568 20 -1591 2 -4 6 -24 10 -45 13 -83 101 -341
140 -410 13 -22 50 -68 83 -101 32 -34 78 -86 101 -117 23 -31 86 -94 140
-140 54 -47 104 -91 111 -99 26 -25 212 -134 347 -201 137 -69 196 -93 293
-120 30 -8 65 -24 77 -35 27 -23 237 -81 347 -97 44 -6 74 -13 140 -33 69 -22
174 -35 250 -33 22 0 178 2 346 4 213 2 310 7 320 15 11 9 20 8 38 -2 20 -10
30 -10 57 1 74 31 218 64 294 68 25 2 117 28 205 60 201 71 195 69 340 142 66
34 136 66 155 73 19 6 67 31 105 56 39 25 88 51 110 57 41 12 113 62 185 128
9 8 42 37 73 63 31 27 57 56 57 66 0 10 11 23 25 29 13 6 32 26 41 44 9 18 29
45 44 59 42 41 199 277 205 308 1 9 5 32 9 52 4 20 20 64 37 98 17 34 32 83
35 113 6 64 7 71 23 128 9 29 11 72 7 120 -10 120 -8 261 3 317 22 113 24 223
25 1568 1 1262 -1 1437 -18 1513 -3 13 -6 88 -7 167 -1 119 -4 148 -19 173
-22 36 -64 52 -105 40z m-4333 -183 c21 -4 41 -7 45 -7 5 0 19 -5 33 -10 15
-6 247 -10 564 -10 512 0 539 -1 557 -19 10 -10 16 -25 13 -34 -9 -22 20 -29
53 -12 30 15 37 14 95 -10 35 -15 41 -14 83 1 36 14 63 17 129 12 47 -3 97
-11 113 -17 22 -8 44 -7 101 7 62 16 77 16 108 5 30 -11 44 -11 75 -1 32 11
46 11 79 0 32 -11 42 -11 55 0 13 11 22 10 54 -5 40 -18 113 -15 152 6 13 6
29 4 54 -8 34 -16 37 -16 87 5 51 21 51 21 78 2 32 -23 68 -26 94 -7 19 14 78
13 116 -1 13 -5 39 -4 62 2 31 8 43 7 69 -8 28 -17 32 -17 72 -1 36 15 90 18
367 21 391 4 447 7 527 28 62 16 105 21 308 31 102 5 112 4 133 -15 12 -11 22
-31 23 -43 1 -12 2 -101 3 -197 3 -167 6 -244 23 -530 5 -69 7 -246 6 -395 -4
-510 -3 -1510 1 -1695 3 -139 0 -205 -11 -265 -11 -58 -16 -157 -17 -360 -1
-154 -6 -296 -10 -315 -4 -19 -22 -71 -41 -115 -18 -44 -49 -117 -69 -163 -93
-220 -304 -447 -551 -594 -33 -20 -105 -58 -160 -85 -55 -27 -138 -70 -185
-95 -47 -26 -101 -49 -120 -53 -19 -4 -87 -27 -150 -51 -63 -24 -141 -49 -174
-55 -32 -6 -88 -21 -125 -34 -91 -32 -118 -37 -219 -37 -48 0 -96 -5 -106 -11
-11 -5 -68 -10 -127 -11 -59 -1 -111 -4 -114 -8 -3 -3 -28 0 -55 7 -41 11 -51
11 -61 -1 -13 -16 -50 -19 -65 -4 -16 16 -73 20 -299 24 -221 4 -248 9 -350
57 -34 16 -100 35 -150 43 -105 17 -151 32 -226 74 -45 26 -186 83 -239 97
-56 14 -109 40 -147 71 -23 19 -64 42 -90 51 -73 25 -132 69 -288 219 -134
128 -275 338 -275 409 0 17 -11 37 -29 54 -23 22 -29 36 -29 71 -1 52 -8 123
-22 200 -12 72 -16 444 -6 585 10 132 10 177 1 455 -4 118 -8 652 -9 1185 -2
534 -6 993 -10 1020 -4 28 -11 72 -16 100 -4 27 -7 92 -5 145 2 73 -1 104 -15
135 -26 62 -12 108 42 139 55 33 91 37 190 21z"/>
<path d="M3906 5852 c10 -59 44 -122 95 -174 l46 -49 -59 -89 c-50 -76 -60
-97 -62 -140 -1 -28 -8 -56 -14 -62 -7 -7 -12 -19 -12 -27 0 -9 -9 -34 -19
-56 -11 -22 -24 -69 -31 -104 -15 -85 -42 -124 -72 -105 -15 10 -45 83 -52
128 -4 21 -22 75 -41 119 -19 44 -35 94 -35 111 0 35 -28 93 -70 147 -50 63
-49 84 3 137 45 47 85 115 81 140 -1 6 -2 22 -3 34 l-1 21 -22 -20 c-13 -11
-49 -35 -81 -53 -52 -29 -64 -32 -115 -27 -31 3 -93 19 -136 37 -108 43 -174
45 -215 6 -29 -28 -34 -29 -111 -14 -8 2 -38 -8 -67 -22 -40 -19 -56 -33 -69
-62 -30 -68 -3 -210 54 -282 16 -21 20 -22 37 -10 25 19 49 18 67 -3 42 -49
24 -74 -40 -55 -20 6 -65 18 -100 28 -34 9 -67 23 -73 31 -14 16 -39 17 -39 3
0 -35 56 -99 135 -155 l28 -21 -26 -25 -27 -25 35 -34 35 -34 110 0 c104 1
111 0 115 -20 17 -71 9 -113 -27 -144 -66 -57 -98 -94 -103 -120 -29 -157 -78
-250 -148 -285 -38 -19 -147 -24 -257 -12 -145 16 -374 123 -457 212 -36 39
-163 288 -163 320 0 49 41 153 75 189 l35 36 37 -22 c83 -49 217 -16 322 80
25 22 53 40 63 40 10 0 21 6 24 13 5 14 -64 136 -99 175 -40 43 -103 72 -169
77 -35 3 -72 8 -83 12 -11 3 -45 7 -75 8 -30 1 -64 5 -76 9 -12 3 -38 -1 -59
-10 -53 -22 -194 -30 -251 -14 -28 8 -55 25 -74 46 -16 19 -36 34 -44 34 -13
0 -13 -5 -1 -39 24 -69 47 -105 107 -167 l59 -61 -51 -59 c-27 -33 -56 -77
-64 -99 -35 -99 -47 -151 -47 -213 0 -37 -10 -101 -21 -142 -18 -66 -21 -110
-24 -380 -5 -436 -6 -420 21 -420 20 0 22 -20 23 -237 2 -142 -2 -213 -11
-240 -8 -24 -12 -84 -11 -163 2 -138 3 -363 4 -600 0 -85 2 -218 5 -295 7
-209 7 -208 7 -240 0 -90 -3 -126 -11 -147 -13 -34 -7 -106 10 -124 14 -13 20
-11 54 16 21 16 44 31 51 31 8 1 19 3 24 4 6 1 18 3 28 4 9 1 27 9 40 19 19
15 24 30 29 97 6 88 6 77 -1 365 -3 113 -8 216 -10 229 -3 12 4 50 16 83 20
58 20 86 3 179 -13 68 -8 292 8 434 2 17 -2 50 -10 75 -9 33 -11 88 -8 204 5
131 9 165 26 197 10 21 26 39 33 39 15 0 31 -50 28 -85 -23 -254 -34 -778 -18
-870 14 -84 13 -153 -4 -257 -8 -50 -10 -104 -5 -150 4 -40 6 -102 5 -138 -5
-208 -4 -240 8 -252 10 -10 19 -5 46 24 18 20 57 48 85 63 78 39 96 103 58
211 -9 22 -11 47 -7 55 8 14 24 114 21 134 0 6 -2 73 -4 150 -2 77 -9 150 -15
161 -17 33 -20 105 -6 159 13 48 11 116 -4 180 -5 17 -7 39 -6 50 5 48 4 83
-3 125 -3 25 -7 99 -7 165 -1 101 2 126 19 159 11 22 25 41 31 43 6 2 21 -19
33 -48 25 -57 24 -35 17 -619 -2 -151 0 -304 5 -340 4 -36 11 -86 14 -111 4
-33 1 -60 -13 -96 -12 -32 -18 -68 -16 -96 2 -26 5 -84 7 -131 5 -106 22 -140
64 -125 16 5 53 26 83 47 81 55 84 69 75 347 -3 88 -7 216 -9 285 -2 77 1 146
9 180 7 34 9 66 3 85 -23 81 -25 112 -19 290 0 28 0 63 -2 79 -5 53 21 190 40
204 9 6 20 12 24 12 12 0 33 -94 32 -145 -5 -182 -4 -225 7 -265 17 -61 14
-123 -9 -204 -19 -68 -19 -70 0 -142 14 -52 17 -85 11 -111 -4 -21 -7 -49 -5
-63 1 -14 5 -97 9 -185 8 -210 8 -212 15 -219 3 -4 30 10 58 29 29 20 62 37
73 38 38 3 64 49 73 128 4 41 6 90 4 109 -6 61 -3 203 4 253 5 28 3 64 -3 88
-19 69 -19 95 -1 167 9 39 14 78 11 88 -9 26 -6 332 4 341 14 14 41 -14 50
-53 6 -25 5 -58 -2 -94 -9 -43 -9 -65 1 -100 11 -37 13 -99 7 -185 -1 -5 -1
-64 -1 -130 0 -66 -2 -194 -4 -285 -3 -91 -5 -182 -6 -204 0 -21 -4 -48 -9
-60 -4 -13 -5 -28 -1 -34 8 -13 7 -13 129 62 71 44 81 54 87 85 4 20 9 47 12
61 6 28 6 92 -4 440 -10 352 -9 361 11 414 l19 49 18 -24 c17 -22 18 -40 14
-199 -5 -226 -5 -254 1 -282 10 -47 5 -269 -6 -283 -7 -8 -7 -16 -2 -19 6 -4
7 -21 2 -43 -12 -53 7 -60 50 -19 19 19 49 41 67 50 49 24 107 98 110 137 1
19 4 83 7 143 5 123 15 261 21 291 2 11 4 38 4 59 1 22 4 36 8 32 8 -8 42
-108 49 -146 6 -34 45 -182 79 -305 49 -174 47 -181 -37 -238 -29 -20 -73 -56
-97 -81 -24 -26 -61 -56 -82 -68 -22 -12 -39 -25 -39 -29 0 -18 -74 -75 -121
-92 -35 -13 -73 -40 -113 -79 -34 -33 -85 -74 -113 -91 -29 -17 -55 -38 -58
-46 -6 -16 11 -31 37 -31 9 0 20 -4 23 -10 3 -5 22 -10 41 -10 31 0 35 -2 29
-21 -12 -36 -218 -239 -243 -239 -29 0 -92 32 -134 69 -29 25 -83 44 -128 44
-30 1 -59 -14 -76 -41 -32 -48 -84 -155 -84 -174 0 -23 25 -23 42 0 7 11 24
25 37 32 22 11 27 10 42 -9 9 -11 26 -21 37 -21 27 0 70 -36 57 -48 -15 -14
-74 -33 -119 -39 -57 -8 -103 -30 -122 -58 -16 -24 -16 -30 1 -93 15 -54 27
-75 66 -114 27 -26 57 -48 68 -48 l21 0 -21 51 c-11 29 -17 54 -14 57 3 3 28
6 55 6 38 1 55 7 77 27 61 56 142 97 164 83 5 -2 -3 -36 -16 -73 -14 -38 -32
-108 -41 -157 -28 -154 -27 -161 28 -190 21 -11 33 -12 42 -5 6 6 37 14 68 19
55 8 108 34 108 51 0 4 -15 12 -32 17 l-33 10 2 69 c7 207 10 245 16 251 10
10 62 -37 103 -95 22 -30 49 -65 61 -77 l21 -23 -28 -60 c-16 -33 -25 -63 -20
-66 5 -3 24 5 43 17 19 13 58 35 86 50 27 15 57 38 65 50 19 29 26 111 11 137
-16 31 -111 108 -149 122 -19 7 -40 23 -47 36 -7 14 -22 23 -35 23 -12 0 -30
8 -40 17 -15 16 -15 18 12 40 16 13 38 31 49 41 66 58 137 112 145 107 4 -3
11 -24 15 -48 14 -94 16 -99 32 -86 8 8 12 21 9 35 -10 38 8 65 109 169 54 55
123 129 154 165 31 35 64 73 73 83 30 34 38 11 38 -101 -1 -59 3 -128 8 -155
5 -26 6 -66 2 -90 -12 -64 -14 -117 -6 -164 4 -24 3 -65 -3 -95 -6 -29 -13
-77 -16 -106 -3 -38 -12 -62 -30 -83 -14 -17 -25 -35 -25 -40 0 -14 -132 -149
-161 -164 -15 -8 -42 -17 -60 -20 -19 -3 -41 -13 -50 -21 -8 -7 -21 -14 -28
-14 -6 0 -26 -7 -43 -16 -26 -13 -37 -14 -73 -4 -24 7 -52 9 -64 5 -18 -5 -19
-9 -9 -28 6 -12 14 -24 17 -27 3 -3 18 -24 33 -47 49 -75 142 -124 235 -124
138 0 204 10 238 37 19 14 38 23 44 20 5 -3 15 -30 21 -58 7 -29 19 -66 28
-83 23 -47 91 -127 148 -173 57 -47 98 -54 130 -24 62 60 162 191 167 219 9
50 32 123 39 123 4 0 8 -4 8 -8 0 -18 79 -51 140 -58 114 -13 191 -9 243 14
59 26 139 105 166 164 l20 43 -31 3 c-16 2 -43 -1 -59 -7 -31 -11 -90 4 -136
34 -19 13 -46 21 -76 24 -4 1 -47 36 -95 80 -133 119 -164 194 -163 391 0 30
0 89 -1 130 0 83 0 106 1 297 1 144 10 167 44 117 11 -16 54 -63 96 -104 42
-42 90 -91 107 -110 17 -19 48 -50 69 -69 41 -38 54 -66 62 -126 5 -45 32 -84
44 -63 4 7 10 33 13 57 9 68 21 76 65 44 20 -15 50 -41 66 -58 17 -17 47 -43
68 -59 35 -26 37 -30 23 -44 -8 -8 -26 -16 -39 -18 -14 -1 -36 -13 -50 -26
-14 -13 -53 -43 -87 -68 -92 -66 -90 -63 -90 -144 0 -58 4 -76 18 -89 29 -27
192 -108 192 -96 0 5 -12 35 -26 66 -23 48 -25 58 -12 67 8 6 33 39 56 72 50
74 100 120 115 105 6 -6 12 -46 13 -89 1 -43 4 -91 8 -107 22 -101 18 -121
-24 -130 -17 -4 -30 -12 -30 -19 0 -17 74 -50 114 -51 17 -1 41 -4 54 -9 30
-10 89 10 103 35 7 14 7 30 0 52 -5 18 -19 77 -30 133 -11 55 -27 117 -36 137
-20 49 -19 67 5 67 26 0 118 -55 153 -92 21 -23 35 -29 65 -28 72 4 72 5 38
-72 -24 -57 -1 -57 53 -1 79 82 112 183 75 224 -25 28 -61 46 -104 53 -35 5
-112 30 -131 42 -16 9 8 32 43 39 16 4 39 18 50 31 23 26 32 23 82 -21 33 -28
51 -18 36 21 -17 43 -68 139 -86 162 -39 47 -138 35 -201 -24 -43 -42 -97 -68
-133 -66 -17 2 -55 33 -122 102 -113 116 -126 135 -101 148 10 5 26 8 35 7 9
-2 22 3 29 11 6 8 19 14 29 14 16 0 47 27 39 34 -2 1 -31 18 -64 36 -33 19
-82 58 -110 87 -31 33 -75 65 -115 84 -36 17 -87 52 -114 78 -27 25 -79 74
-115 107 -36 34 -91 86 -122 115 l-56 54 23 115 c12 63 30 135 39 160 9 25 19
63 22 85 3 22 19 80 35 130 17 49 31 95 32 102 4 24 15 24 27 1 9 -16 14 -76
15 -196 3 -224 12 -332 30 -359 16 -26 170 -145 207 -161 10 -5 0 128 -12 161
-5 14 -8 27 -6 29 2 2 4 24 5 48 0 25 1 74 2 110 0 36 -1 101 -3 145 -1 44 -3
141 -2 215 1 143 13 201 37 181 27 -23 39 -96 31 -193 -4 -51 -7 -97 -7 -103
2 -29 12 -232 12 -245 0 -8 -3 -64 -7 -125 -9 -150 -7 -269 6 -293 6 -11 38
-34 72 -51 34 -17 73 -42 86 -56 20 -19 29 -22 44 -14 20 10 26 44 9 54 -6 4
-10 12 -8 18 1 7 -2 46 -7 87 -5 41 -7 84 -6 95 1 11 2 56 1 100 -4 271 0 448
13 584 2 19 -2 53 -8 76 -27 89 4 179 45 130 15 -18 18 -181 6 -281 -6 -46 -3
-80 10 -134 15 -63 16 -80 4 -138 -7 -35 -12 -92 -10 -126 2 -54 2 -108 -3
-236 0 -19 4 -70 10 -113 11 -78 31 -117 60 -117 18 0 72 -28 98 -50 45 -39
50 -34 51 59 1 47 5 131 9 186 4 55 8 147 10 205 1 58 7 117 13 131 11 27 9
59 -8 139 -12 54 -13 78 -12 245 1 72 -1 147 -4 167 -4 21 0 61 7 90 7 29 12
56 11 60 -1 3 5 11 13 18 22 18 42 -25 50 -110 15 -158 14 -393 -2 -460 -11
-49 -12 -77 -5 -114 5 -26 8 -65 5 -85 -8 -67 -8 -86 -1 -130 5 -28 3 -61 -5
-90 -11 -40 -14 -177 -8 -388 1 -54 39 -99 116 -139 51 -27 55 -28 71 -12 12
12 18 38 21 89 1 39 5 103 7 141 2 46 -2 87 -12 119 -13 40 -14 61 -5 121 6
40 9 145 6 233 -2 88 -3 196 -2 240 3 156 2 221 -5 328 -9 124 5 222 36 262
11 14 23 25 27 25 5 0 19 -24 31 -52 18 -42 23 -70 22 -138 -2 -179 -12 -347
-23 -402 -9 -44 -9 -75 1 -135 10 -68 9 -87 -5 -143 -10 -36 -17 -92 -16 -125
1 -33 1 -71 2 -85 0 -14 -3 -59 -6 -100 -5 -54 -2 -89 9 -124 11 -36 12 -53 4
-63 -14 -18 -18 -142 -5 -171 6 -13 33 -35 59 -48 27 -14 66 -40 87 -59 21
-19 43 -35 48 -35 11 0 11 258 1 276 -4 5 -1 40 6 77 16 81 12 140 -14 247
-12 48 -4 238 14 336 4 19 2 50 -3 67 -6 18 -11 55 -12 82 -1 102 7 295 13
300 3 4 2 21 -4 38 -9 31 -21 169 -20 236 1 19 6 47 13 63 15 36 29 26 57 -40
18 -42 20 -64 16 -212 -2 -91 -4 -203 -4 -250 -1 -193 -1 -460 0 -535 0 -159
0 -531 -1 -585 -3 -122 6 -247 19 -263 7 -8 32 -19 55 -22 50 -9 74 -20 108
-51 54 -51 76 18 45 145 -10 44 -12 69 -5 77 5 7 7 25 4 40 -4 16 -6 34 -6 39
5 58 11 207 10 230 -1 17 -1 53 1 80 1 28 3 145 3 260 -1 116 -1 242 0 280 0
39 -1 149 -2 245 -5 601 -3 650 25 650 13 0 15 48 12 383 -3 345 -5 387 -22
432 -10 28 -18 68 -18 90 0 22 -4 57 -9 78 -6 21 -12 53 -14 72 -8 61 -47 148
-85 189 -70 77 -70 77 8 154 54 52 73 79 87 120 18 55 12 78 -16 67 -8 -3 -21
-18 -31 -34 -21 -38 -67 -52 -181 -57 -68 -2 -99 1 -135 15 -40 16 -60 17
-137 10 -280 -27 -302 -38 -391 -193 -44 -78 -45 -95 -7 -96 6 0 44 -24 83
-54 49 -36 95 -61 142 -76 l71 -22 63 25 64 25 35 -41 c69 -80 82 -185 36
-275 -16 -31 -38 -77 -48 -102 -47 -117 -143 -198 -327 -277 l-111 -48 -160 0
c-200 0 -232 10 -270 89 -15 30 -27 75 -29 111 -6 83 -11 92 -76 156 -58 57
-77 101 -66 154 3 11 5 25 5 32 2 27 30 41 73 36 100 -13 172 -3 205 29 29 27
29 45 1 69 -22 19 -22 20 -4 32 10 7 32 21 49 32 39 25 84 91 85 122 0 28 -6
29 -32 4 -23 -20 -168 -71 -204 -71 -20 0 -22 4 -17 23 4 12 16 31 26 42 17
17 22 18 54 6 19 -7 39 -9 45 -6 11 7 63 105 56 105 -2 0 2 24 9 53 25 108 7
156 -74 196 -50 26 -67 30 -109 25 -41 -4 -53 -2 -69 14 -45 48 -101 48 -218
2 -136 -54 -221 -46 -300 28 -16 15 -38 31 -48 35 -16 6 -17 2 -11 -31z m-716
-268 c19 -35 45 -48 60 -29 14 17 40 20 40 6 0 -19 -42 -81 -54 -81 -19 0 -52
40 -70 84 -19 46 -19 46 -3 46 8 0 20 -12 27 -26z m1257 -15 c-7 -17 -24 -45
-39 -62 l-26 -32 -24 29 c-45 57 -44 89 2 56 l28 -20 22 30 c30 41 52 41 37
-1z"/>
</g>
</svg>
